<svg version="1" xmlns="http://www.w3.org/2000/svg" width="694.667" height="694.667" viewBox="0 0 521.000000 521.000000"><path d="M152 121v121h66.9l-.1-58.5c0-32.2.1-58.7.3-58.9.2-.2 10.4 12.1 22.7 27.3 12.3 15.2 23.3 28.9 24.5 30.3 1.2 1.5 5.3 6.6 9.2 11.5 3.8 4.8 7.2 9 7.5 9.3.3.3 5.8 7 12.2 15 6.4 8 12.6 15.6 13.8 17 1.2 1.4 2.9 3.5 3.7 4.8l1.6 2.2 26.6-.2 26.6-.3V0H301l-.2 61-.3 60.9-27-34.2c-14.9-18.8-36.5-46.2-48-60.9L204.5.1 178.3 0H152v121zM153.8 276.8l-2.7.3.3 71.7c.2 39.4.6 73.5 1 75.7 5.4 31.8 14.4 51.6 31.3 68.2 19.1 18.7 41.7 27.3 73.3 27.8 16 .3 25.5-.5 35-3.1 3-.8 6.3-1.7 7.2-1.9 4.7-1.1 18.3-7.8 25.1-12.4 23.7-16 39.4-43.3 43.3-75 .3-2.3.8-6.2 1.3-8.5.4-2.3.8-35.3.8-73.4V277l-3.6-.1c-12.5-.2-62.3 0-62.7.3-.2.3-.4 30.8-.4 67.9-.1 39.8-.5 69.4-1.1 72.4-2 10.4-3.2 14.2-6.6 21.1-7.8 16.1-19.2 23.2-36.5 22.9-7.6-.2-9.6-.6-15.2-3.4-13.9-6.8-22.7-22.4-25.2-44.6-.3-3.3-.6-35.4-.7-71.3V277l-3.3-.1c-17.2-.2-58.5-.3-60.6-.1z"/></svg>